<svg xmlns="http://www.w3.org/2000/svg" xmlns:xlink="http://www.w3.org/1999/xlink" width="1500" zoomAndPan="magnify" viewBox="0 0 1125 179.249993" height="239" preserveAspectRatio="xMidYMid meet" version="1.2"><defs><clipPath id="9110df0c29"><path d="M 2.34375 0 L 1122.65625 0 L 1122.65625 178.503906 L 2.34375 178.503906 Z M 2.34375 0 "/></clipPath><clipPath id="7a2d93119c"><path d="M 2.34375 105 L 97 105 L 97 173 L 2.34375 173 Z M 2.34375 105 "/></clipPath><clipPath id="9afe053f95"><path d="M 96.394531 105.429688 L 96.394531 136.195312 L 53.90625 168.347656 C 50.632812 170.8125 47.503906 172.238281 44.476562 172.238281 C 40.101562 172.238281 35.902344 169.277344 31.878906 162.285156 C 31.855469 162.257812 31.84375 162.246094 31.84375 162.246094 L 3.089844 112.320312 L 2.769531 111.75 C 2.523438 111.175781 2.34375 110.535156 2.34375 109.855469 C 2.34375 107.429688 4.335938 105.429688 6.757812 105.429688 Z M 96.394531 105.429688 "/></clipPath><clipPath id="2462234aae"><path d="M 2.34375 105 L 97 105 L 97 173 L 2.34375 173 Z M 2.34375 105 "/></clipPath><clipPath id="419cd33e3f"><path d="M 2.34375 6 L 97 6 L 97 74 L 2.34375 74 Z M 2.34375 6 "/></clipPath><clipPath id="9d53487154"><path d="M 6.757812 73.070312 C 4.335938 73.070312 2.34375 71.074219 2.34375 68.644531 C 2.34375 67.96875 2.523438 67.324219 2.769531 66.753906 L 3.089844 66.183594 L 31.84375 16.257812 C 31.84375 16.257812 31.855469 16.242188 31.878906 16.21875 C 35.902344 9.226562 40.101562 6.261719 44.476562 6.261719 C 47.503906 6.261719 50.632812 7.691406 53.90625 10.152344 L 96.394531 42.308594 L 96.394531 73.070312 Z M 6.757812 73.070312 "/></clipPath><linearGradient x1="18522.299918" gradientTransform="matrix(0.746875,0,0,0.746875,2.343771,0)" y1="18328.204486" x2="18628.983249" gradientUnits="userSpaceOnUse" y2="18219.812784" id="dbc914ba8a"><stop style="stop-color:#1c7bdc;stop-opacity:1;" offset="0"/><stop style="stop-color:#1c7bdc;stop-opacity:1;" offset="0.41918"/><stop style="stop-color:#1c7bdc;stop-opacity:1;" offset="0.5"/><stop style="stop-color:#1c7bdc;stop-opacity:1;" offset="0.58082"/><stop style="stop-color:#1c7bdc;stop-opacity:1;" offset="1"/></linearGradient><clipPath id="114b57254a"><path d="M 2.34375 6 L 97 6 L 97 74 L 2.34375 74 Z M 2.34375 6 "/></clipPath><clipPath id="0140cb4600"><path d="M 31 88 L 203 88 L 203 178.503906 L 31 178.503906 Z M 31 88 "/></clipPath><clipPath id="baa7da7b29"><path d="M 202.988281 88.730469 C 202.988281 91.3125 202.417969 93.863281 201.304688 95.800781 L 157.707031 171.433594 C 155.484375 175.34375 149.96875 178.503906 145.492188 178.503906 L 48.90625 178.503906 C 44.429688 178.503906 38.949219 175.34375 36.691406 171.433594 L 31.605469 162.566406 C 35.652344 169.601562 39.878906 172.582031 44.285156 172.582031 C 47.332031 172.582031 50.484375 171.144531 53.78125 168.667969 L 96.554688 136.328125 L 159.5 88.730469 Z M 202.988281 88.730469 "/></clipPath><linearGradient x1="32731.195605" gradientTransform="matrix(0.746875,0,0,0.746875,2.343771,0)" y1="23642.311807" x2="32865.838179" gradientUnits="userSpaceOnUse" y2="23454.229989" id="a8e29bcd36"><stop style="stop-color:#f68b21;stop-opacity:1;" offset="0"/><stop style="stop-color:#f68b21;stop-opacity:1;" offset="0.422535"/><stop style="stop-color:#f68b21;stop-opacity:1;" offset="0.5"/><stop style="stop-color:#f68b21;stop-opacity:1;" offset="0.577465"/><stop style="stop-color:#f68b21;stop-opacity:1;" offset="1"/></linearGradient><clipPath id="b7e61c457c"><path d="M 165 0 L 237 0 L 237 178.503906 L 165 178.503906 Z M 165 0 "/></clipPath><clipPath id="ae2a12f351"><path d="M 234.78125 96.265625 L 191.59375 171.472656 C 189.394531 175.363281 183.929688 178.503906 179.492188 178.503906 L 165.367188 178.503906 C 165.769531 177.957031 166.136719 177.386719 166.46875 176.789062 L 209.65625 101.582031 C 213.773438 94.445312 213.773438 84.058594 209.65625 76.882812 L 166.46875 1.675781 C 166.136719 1.105469 165.769531 0.546875 165.367188 0 L 179.492188 0 C 183.929688 0 189.394531 3.140625 191.59375 7.03125 L 234.78125 82.238281 C 236.980469 86.09375 236.980469 92.410156 234.78125 96.265625 Z M 234.78125 96.265625 "/></clipPath><clipPath id="2ed37b6dc1"><path d="M 199 0 L 271 0 L 271 178.503906 L 199 178.503906 Z M 199 0 "/></clipPath><clipPath id="f0fbf79fb9"><path d="M 269.265625 96.265625 L 226.054688 171.472656 C 223.855469 175.363281 218.386719 178.503906 213.949219 178.503906 L 199.855469 178.503906 C 200.234375 177.957031 200.597656 177.386719 200.953125 176.789062 L 244.128906 101.582031 C 248.246094 94.445312 248.246094 84.058594 244.128906 76.882812 L 200.953125 1.675781 C 200.597656 1.105469 200.234375 0.546875 199.855469 0 L 213.949219 0 C 218.386719 0 223.855469 3.140625 226.054688 7.03125 L 269.265625 82.238281 C 271.464844 86.09375 271.464844 92.410156 269.265625 96.265625 Z M 269.265625 96.265625 "/></clipPath><clipPath id="66bcd262dd"><path d="M 329 138 L 1083 138 L 1083 178.503906 L 329 178.503906 Z M 329 138 "/></clipPath><clipPath id="2d34631745"><path d="M 287.292969 0 L 1094.050781 0 L 1094.050781 116.027344 L 287.292969 116.027344 Z M 287.292969 0 "/></clipPath></defs><g id="ff80a0bf62"><g clip-rule="nonzero" clip-path="url(#9110df0c29)"><path style=" stroke:none;fill-rule:nonzero;fill:#ffffff;fill-opacity:1;" d="M 2.34375 0 L 1122.65625 0 L 1122.65625 178.503906 L 2.34375 178.503906 Z M 2.34375 0 "/><path style=" stroke:none;fill-rule:nonzero;fill:#ffffff;fill-opacity:1;" d="M 2.34375 0 L 1122.65625 0 L 1122.65625 178.503906 L 2.34375 178.503906 Z M 2.34375 0 "/></g><g clip-rule="nonzero" clip-path="url(#7a2d93119c)"><g clip-rule="nonzero" clip-path="url(#9afe053f95)"><path style=" stroke:none;fill-rule:nonzero;fill:#1c7bdb;fill-opacity:1;" d="M 2.34375 105.429688 L 2.34375 172.238281 L 96.394531 172.238281 L 96.394531 105.429688 Z M 2.34375 105.429688 "/></g></g><g clip-rule="nonzero" clip-path="url(#2462234aae)"><path style=" stroke:none;fill-rule:nonzero;fill:#000000;fill-opacity:0.2;" d="M 96.394531 105.429688 L 96.394531 136.195312 L 53.90625 168.347656 C 50.632812 170.8125 47.503906 172.238281 44.476562 172.238281 C 40.101562 172.238281 35.902344 169.277344 31.878906 162.285156 C 31.855469 162.257812 31.84375 162.246094 31.84375 162.246094 L 3.089844 112.320312 L 2.769531 111.75 C 2.523438 111.175781 2.34375 110.535156 2.34375 109.855469 C 2.34375 107.429688 4.335938 105.429688 6.757812 105.429688 Z M 96.394531 105.429688 "/></g><g clip-rule="nonzero" clip-path="url(#419cd33e3f)"><g clip-rule="nonzero" clip-path="url(#9d53487154)"><path style=" stroke:none;fill-rule:nonzero;fill:url(#linear0);" d="M 2.34375 6.261719 L 2.34375 73.070312 L 96.394531 73.070312 L 96.394531 6.261719 Z M 2.34375 6.261719 "/></g></g><g clip-rule="nonzero" clip-path="url(#114b57254a)"><path style=" stroke:none;fill-rule:nonzero;fill:#000000;fill-opacity:0.2;" d="M 6.757812 73.070312 C 4.335938 73.070312 2.34375 71.074219 2.34375 68.644531 C 2.34375 67.96875 2.523438 67.324219 2.769531 66.753906 L 3.089844 66.183594 L 31.84375 16.257812 C 31.84375 16.257812 31.855469 16.242188 31.878906 16.21875 C 35.902344 9.226562 40.101562 6.261719 44.476562 6.261719 C 47.503906 6.261719 50.632812 7.691406 53.90625 10.152344 L 96.394531 42.308594 L 96.394531 73.070312 Z M 6.757812 73.070312 "/></g><path style=" stroke:none;fill-rule:nonzero;fill:#f58b21;fill-opacity:1;" d="M 202.988281 88.730469 L 159.5 88.730469 L 96.554688 41.703125 L 53.78125 9.726562 L 53.78125 9.6875 C 45.71875 3.691406 38.445312 4.046875 31.605469 15.757812 L 36.691406 6.992188 C 38.949219 3.125 44.429688 0 48.90625 0 L 145.492188 0 C 149.96875 0 155.484375 3.125 157.707031 6.992188 L 201.304688 81.773438 C 202.417969 83.691406 202.988281 86.210938 202.988281 88.730469 Z M 202.988281 88.730469 "/><g clip-rule="nonzero" clip-path="url(#0140cb4600)"><g clip-rule="nonzero" clip-path="url(#baa7da7b29)"><path style=" stroke:none;fill-rule:nonzero;fill:url(#linear1);" d="M 31.605469 88.730469 L 31.605469 178.503906 L 202.988281 178.503906 L 202.988281 88.730469 Z M 31.605469 88.730469 "/></g></g><g clip-rule="nonzero" clip-path="url(#b7e61c457c)"><g clip-rule="nonzero" clip-path="url(#ae2a12f351)"><path style=" stroke:none;fill-rule:nonzero;fill:#1c43c4;fill-opacity:1;" d="M 165.367188 0 L 165.367188 178.503906 L 236.980469 178.503906 L 236.980469 0 Z M 165.367188 0 "/></g></g><g clip-rule="nonzero" clip-path="url(#2ed37b6dc1)"><g clip-rule="nonzero" clip-path="url(#f0fbf79fb9)"><path style=" stroke:none;fill-rule:nonzero;fill:#1c43c4;fill-opacity:1;" d="M 199.855469 0 L 199.855469 178.503906 L 271.464844 178.503906 L 271.464844 0 Z M 199.855469 0 "/></g></g><path style=" stroke:none;fill-rule:nonzero;fill:#282828;fill-opacity:1;" d="M 322.460938 1.460938 L 348.289062 82.65625 L 349.28125 82.65625 L 375.160156 1.460938 L 400.207031 1.460938 L 363.367188 108.328125 L 334.25 108.328125 L 297.359375 1.460938 Z M 427.761719 108.328125 L 427.761719 1.460938 L 499.773438 1.460938 L 499.773438 20.089844 L 450.359375 20.089844 L 450.359375 45.554688 L 496.070312 45.554688 L 496.070312 64.183594 L 450.359375 64.183594 L 450.359375 89.699219 L 499.980469 89.699219 L 499.980469 108.328125 Z M 532.429688 108.328125 L 532.429688 1.460938 L 574.59375 1.460938 C 582.664062 1.460938 589.550781 2.90625 595.253906 5.792969 C 600.996094 8.644531 605.359375 12.699219 608.351562 17.949219 C 611.382812 23.167969 612.890625 29.308594 612.890625 36.371094 C 612.890625 43.46875 611.359375 49.574219 608.300781 54.6875 C 605.238281 59.765625 600.804688 63.660156 594.992188 66.375 C 589.222656 69.089844 582.230469 70.445312 574.015625 70.445312 L 545.789062 70.445312 L 545.789062 52.285156 L 570.363281 52.285156 C 574.679688 52.285156 578.261719 51.695312 581.117188 50.511719 C 583.96875 49.328125 586.089844 47.554688 587.480469 45.1875 C 588.90625 42.824219 589.621094 39.882812 589.621094 36.371094 C 589.621094 32.824219 588.90625 29.832031 587.480469 27.394531 C 586.089844 24.960938 583.949219 23.117188 581.0625 21.863281 C 578.210938 20.578125 574.609375 19.933594 570.261719 19.933594 L 555.023438 19.933594 L 555.023438 108.328125 Z M 590.140625 59.695312 L 616.703125 108.328125 L 591.761719 108.328125 L 565.773438 59.695312 Z M 659.992188 1.460938 L 685.820312 82.65625 L 686.8125 82.65625 L 712.691406 1.460938 L 737.742188 1.460938 L 700.902344 108.328125 L 671.78125 108.328125 L 634.890625 1.460938 Z M 857.472656 54.894531 C 857.472656 66.550781 855.265625 76.464844 850.847656 84.640625 C 846.460938 92.8125 840.480469 99.058594 832.898438 103.371094 C 825.347656 107.652344 816.863281 109.789062 807.429688 109.789062 C 797.9375 109.789062 789.414062 107.632812 781.863281 103.320312 C 774.3125 99.007812 768.355469 92.761719 763.96875 84.585938 C 759.585938 76.410156 757.390625 66.515625 757.390625 54.894531 C 757.390625 43.242188 759.585938 33.328125 763.96875 25.152344 C 768.355469 16.976562 774.3125 10.75 781.863281 6.472656 C 789.414062 2.15625 797.9375 0 807.429688 0 C 816.863281 0 825.347656 2.15625 832.898438 6.472656 C 840.480469 10.75 846.460938 16.976562 850.847656 25.152344 C 855.265625 33.328125 857.472656 43.242188 857.472656 54.894531 Z M 834.5625 54.894531 C 834.5625 47.347656 833.4375 40.980469 831.171875 35.796875 C 828.949219 30.613281 825.804688 26.683594 821.734375 24.003906 C 817.664062 21.324219 812.898438 19.984375 807.429688 19.984375 C 801.96875 19.984375 797.207031 21.324219 793.136719 24.003906 C 789.066406 26.683594 785.898438 30.613281 783.632812 35.796875 C 781.410156 40.980469 780.296875 47.347656 780.296875 54.894531 C 780.296875 62.445312 781.410156 68.808594 783.632812 73.992188 C 785.898438 79.175781 789.066406 83.109375 793.136719 85.785156 C 797.207031 88.464844 801.96875 89.804688 807.429688 89.804688 C 812.898438 89.804688 817.664062 88.464844 821.734375 85.785156 C 825.804688 83.109375 828.949219 79.175781 831.171875 73.992188 C 833.4375 68.808594 834.5625 62.445312 834.5625 54.894531 Z M 888.898438 108.328125 L 888.898438 1.460938 L 960.914062 1.460938 L 960.914062 20.089844 L 911.5 20.089844 L 911.5 45.554688 L 957.207031 45.554688 L 957.207031 64.183594 L 911.5 64.183594 L 911.5 89.699219 L 961.121094 89.699219 L 961.121094 108.328125 Z M 993.566406 108.328125 L 993.566406 1.460938 L 1035.734375 1.460938 C 1043.800781 1.460938 1050.695312 2.90625 1056.394531 5.792969 C 1062.136719 8.644531 1066.5 12.699219 1069.492188 17.949219 C 1072.519531 23.167969 1074.035156 29.308594 1074.035156 36.371094 C 1074.035156 43.46875 1072.503906 49.574219 1069.441406 54.6875 C 1066.378906 59.765625 1061.941406 63.660156 1056.132812 66.375 C 1050.359375 69.089844 1043.367188 70.445312 1035.160156 70.445312 L 1006.929688 70.445312 L 1006.929688 52.285156 L 1031.507812 52.285156 C 1035.816406 52.285156 1039.402344 51.695312 1042.253906 50.511719 C 1045.109375 49.328125 1047.230469 47.554688 1048.625 45.1875 C 1050.046875 42.824219 1050.761719 39.882812 1050.761719 36.371094 C 1050.761719 32.824219 1050.046875 29.832031 1048.625 27.394531 C 1047.230469 24.960938 1045.09375 23.117188 1042.203125 21.863281 C 1039.351562 20.578125 1035.75 19.933594 1031.402344 19.933594 L 1016.167969 19.933594 L 1016.167969 108.328125 Z M 1051.285156 59.695312 L 1077.84375 108.328125 L 1052.898438 108.328125 L 1026.914062 59.695312 Z M 1051.285156 59.695312 "/><g clip-rule="nonzero" clip-path="url(#66bcd262dd)"><path style=" stroke:none;fill-rule:nonzero;fill:#282828;fill-opacity:1;" d="M 329.3125 142.601562 L 329.3125 139.394531 L 357.671875 139.394531 L 357.671875 142.601562 L 345.277344 142.601562 L 345.277344 178.503906 L 341.707031 178.503906 L 341.707031 142.601562 Z M 374.851562 178.503906 L 374.851562 139.394531 L 387.476562 139.394531 C 390.25 139.394531 392.566406 139.898438 394.425781 140.902344 C 396.296875 141.894531 397.703125 143.277344 398.648438 145.046875 C 399.601562 146.804688 400.078125 148.820312 400.078125 151.101562 C 400.078125 153.378906 399.601562 155.390625 398.648438 157.132812 C 397.703125 158.878906 396.304688 160.242188 394.445312 161.222656 C 392.585938 162.199219 390.28125 162.691406 387.53125 162.691406 L 376.78125 162.691406 L 376.78125 159.425781 L 387.4375 159.425781 C 389.472656 159.425781 391.167969 159.089844 392.515625 158.414062 C 393.878906 157.738281 394.890625 156.777344 395.554688 155.53125 C 396.226562 154.28125 396.566406 152.804688 396.566406 151.101562 C 396.566406 149.394531 396.226562 147.90625 395.554688 146.632812 C 394.878906 145.34375 393.859375 144.351562 392.496094 143.652344 C 391.148438 142.953125 389.441406 142.601562 387.378906 142.601562 L 378.421875 142.601562 L 378.421875 178.503906 Z M 392.097656 160.859375 L 401.722656 178.503906 L 397.597656 178.503906 L 388.066406 160.859375 Z M 417.976562 178.503906 L 414.234375 178.503906 L 428.460938 139.394531 L 432.28125 139.394531 L 446.503906 178.503906 L 442.761719 178.503906 L 430.503906 144.035156 L 430.234375 144.035156 Z M 420.667969 163.511719 L 440.070312 163.511719 L 440.070312 166.71875 L 420.667969 166.71875 Z M 492.808594 139.394531 L 492.808594 178.503906 L 489.332031 178.503906 L 466.226562 145.753906 L 465.921875 145.753906 L 465.921875 178.503906 L 462.351562 178.503906 L 462.351562 139.394531 L 465.808594 139.394531 L 488.992188 172.183594 L 489.296875 172.183594 L 489.296875 139.394531 Z M 533.582031 149.171875 C 533.367188 146.992188 532.40625 145.261719 530.699219 143.976562 C 528.996094 142.691406 526.847656 142.046875 524.265625 142.046875 C 522.445312 142.046875 520.839844 142.359375 519.453125 142.984375 C 518.078125 143.609375 516.996094 144.472656 516.207031 145.582031 C 515.429688 146.675781 515.042969 147.921875 515.042969 149.324219 C 515.042969 150.355469 515.265625 151.257812 515.710938 152.035156 C 516.15625 152.8125 516.753906 153.480469 517.503906 154.039062 C 518.269531 154.589844 519.109375 155.058594 520.023438 155.453125 C 520.953125 155.847656 521.890625 156.179688 522.832031 156.445312 L 526.957031 157.632812 C 528.203125 157.972656 529.453125 158.414062 530.699219 158.949219 C 531.949219 159.484375 533.085938 160.15625 534.117188 160.972656 C 535.160156 161.773438 535.996094 162.761719 536.621094 163.933594 C 537.257812 165.089844 537.574219 166.484375 537.574219 168.113281 C 537.574219 170.203125 537.035156 172.082031 535.953125 173.75 C 534.871094 175.414062 533.316406 176.738281 531.292969 177.71875 C 529.269531 178.6875 526.84375 179.171875 524.015625 179.171875 C 521.355469 179.171875 519.046875 178.730469 517.085938 177.855469 C 515.125 176.960938 513.582031 175.734375 512.464844 174.167969 C 511.34375 172.601562 510.714844 170.789062 510.574219 168.726562 L 514.238281 168.726562 C 514.367188 170.265625 514.875 171.570312 515.765625 172.640625 C 516.660156 173.710938 517.816406 174.523438 519.242188 175.085938 C 520.667969 175.632812 522.261719 175.90625 524.015625 175.90625 C 525.964844 175.90625 527.695312 175.582031 529.210938 174.933594 C 530.738281 174.269531 531.933594 173.351562 532.800781 172.183594 C 533.679688 171 534.117188 169.625 534.117188 168.058594 C 534.117188 166.734375 533.773438 165.625 533.085938 164.734375 C 532.398438 163.832031 531.4375 163.074219 530.203125 162.460938 C 528.980469 161.851562 527.5625 161.308594 525.945312 160.839844 L 521.265625 159.464844 C 518.199219 158.546875 515.816406 157.28125 514.125 155.664062 C 512.433594 154.046875 511.585938 151.984375 511.585938 149.476562 C 511.585938 147.375 512.144531 145.53125 513.265625 143.9375 C 514.398438 142.335938 515.925781 141.085938 517.847656 140.195312 C 519.785156 139.292969 521.953125 138.839844 524.359375 138.839844 C 526.792969 138.839844 528.945312 139.285156 530.816406 140.175781 C 532.6875 141.066406 534.167969 142.296875 535.265625 143.863281 C 536.371094 145.414062 536.964844 147.183594 537.039062 149.171875 Z M 587.371094 158.949219 C 587.371094 163.023438 586.648438 166.566406 585.195312 169.585938 C 583.742188 172.589844 581.746094 174.917969 579.199219 176.574219 C 576.664062 178.214844 573.75 179.039062 570.453125 179.039062 C 567.15625 179.039062 564.234375 178.214844 561.6875 176.574219 C 559.15625 174.917969 557.160156 172.589844 555.710938 169.585938 C 554.273438 166.566406 553.554688 163.023438 553.554688 158.949219 C 553.554688 154.875 554.273438 151.335938 555.710938 148.332031 C 557.160156 145.3125 559.160156 142.984375 561.707031 141.339844 C 564.253906 139.6875 567.167969 138.859375 570.453125 138.859375 C 573.75 138.859375 576.664062 139.6875 579.199219 141.339844 C 581.746094 142.984375 583.742188 145.3125 585.195312 148.332031 C 586.648438 151.335938 587.371094 154.875 587.371094 158.949219 Z M 583.898438 158.949219 C 583.898438 155.449219 583.3125 152.449219 582.140625 149.953125 C 580.96875 147.445312 579.371094 145.53125 577.347656 144.207031 C 575.324219 142.882812 573.023438 142.21875 570.453125 142.21875 C 567.894531 142.21875 565.601562 142.882812 563.578125 144.207031 C 561.554688 145.53125 559.949219 147.441406 558.765625 149.933594 C 557.59375 152.429688 557.007812 155.433594 557.007812 158.949219 C 557.007812 162.449219 557.59375 165.449219 558.765625 167.941406 C 559.9375 170.4375 561.535156 172.355469 563.558594 173.691406 C 565.582031 175.015625 567.882812 175.675781 570.453125 175.675781 C 573.023438 175.675781 575.324219 175.015625 577.347656 173.691406 C 579.382812 172.367188 580.988281 170.457031 582.160156 167.960938 C 583.332031 165.453125 583.910156 162.449219 583.898438 158.949219 Z M 605.148438 178.503906 L 605.148438 139.394531 L 617.773438 139.394531 C 620.546875 139.394531 622.867188 139.898438 624.722656 140.902344 C 626.597656 141.894531 628.003906 143.277344 628.945312 145.046875 C 629.898438 146.804688 630.375 148.820312 630.375 151.101562 C 630.375 153.378906 629.898438 155.390625 628.945312 157.132812 C 628.003906 158.878906 626.601562 160.242188 624.742188 161.222656 C 622.886719 162.199219 620.582031 162.691406 617.832031 162.691406 L 607.078125 162.691406 L 607.078125 159.425781 L 617.734375 159.425781 C 619.773438 159.425781 621.464844 159.089844 622.816406 158.414062 C 624.175781 157.738281 625.1875 156.777344 625.851562 155.53125 C 626.527344 154.28125 626.863281 152.804688 626.863281 151.101562 C 626.863281 149.394531 626.527344 147.90625 625.851562 146.632812 C 625.175781 145.34375 624.15625 144.351562 622.796875 143.652344 C 621.445312 142.953125 619.742188 142.601562 617.675781 142.601562 L 608.722656 142.601562 L 608.722656 178.503906 Z M 622.394531 160.859375 L 632.019531 178.503906 L 627.894531 178.503906 L 618.367188 160.859375 Z M 645.847656 142.601562 L 645.847656 139.394531 L 674.207031 139.394531 L 674.207031 142.601562 L 661.8125 142.601562 L 661.8125 178.503906 L 658.242188 178.503906 L 658.242188 142.601562 Z M 725.410156 179.039062 C 723.007812 179.039062 720.90625 178.574219 719.109375 177.644531 C 717.316406 176.703125 715.921875 175.421875 714.929688 173.804688 C 713.9375 172.1875 713.4375 170.363281 713.4375 168.324219 C 713.4375 166.847656 713.738281 165.519531 714.335938 164.332031 C 714.949219 163.136719 715.824219 162.003906 716.972656 160.933594 C 718.117188 159.851562 719.503906 158.730469 721.132812 157.574219 L 726.804688 153.355469 C 728.15625 152.386719 729.179688 151.4375 729.878906 150.507812 C 730.59375 149.566406 730.949219 148.414062 730.949219 147.050781 C 730.949219 145.742188 730.453125 144.570312 729.460938 143.539062 C 728.480469 142.492188 727.207031 141.972656 725.640625 141.972656 C 724.546875 141.972656 723.566406 142.246094 722.699219 142.792969 C 721.847656 143.339844 721.167969 144.054688 720.65625 144.933594 C 720.160156 145.796875 719.914062 146.707031 719.914062 147.664062 C 719.914062 148.554688 720.140625 149.453125 720.601562 150.355469 C 721.058594 151.246094 721.675781 152.1875 722.453125 153.183594 C 723.230469 154.160156 724.09375 155.242188 725.050781 156.425781 L 742.921875 178.503906 L 738.796875 178.503906 L 723.214844 159.386719 C 721.90625 157.785156 720.738281 156.351562 719.722656 155.089844 C 718.703125 153.816406 717.902344 152.59375 717.316406 151.425781 C 716.730469 150.242188 716.4375 148.972656 716.4375 147.625 C 716.4375 145.957031 716.824219 144.472656 717.601562 143.175781 C 718.378906 141.863281 719.449219 140.832031 720.808594 140.082031 C 722.183594 139.332031 723.757812 138.953125 725.527344 138.953125 C 727.335938 138.953125 728.902344 139.324219 730.222656 140.0625 C 731.5625 140.800781 732.59375 141.78125 733.316406 143.003906 C 734.054688 144.226562 734.425781 145.574219 734.425781 147.050781 C 734.425781 148.820312 733.96875 150.386719 733.050781 151.75 C 732.148438 153.113281 730.828125 154.449219 729.097656 155.757812 L 721.992188 161.066406 C 720.046875 162.53125 718.710938 163.886719 717.984375 165.136719 C 717.257812 166.382812 716.894531 167.445312 716.894531 168.324219 C 716.894531 169.699219 717.25 170.964844 717.964844 172.125 C 718.675781 173.28125 719.664062 174.214844 720.925781 174.914062 C 722.199219 175.613281 723.65625 175.96875 725.296875 175.980469 C 726.925781 175.96875 728.460938 175.644531 729.898438 175.007812 C 731.339844 174.359375 732.625 173.4375 733.757812 172.238281 C 734.902344 171.042969 735.820312 169.609375 736.507812 167.941406 C 737.207031 166.273438 737.613281 164.417969 737.730469 162.367188 L 741.03125 162.40625 C 740.980469 164.507812 740.695312 166.289062 740.171875 167.75 C 739.664062 169.203125 739.078125 170.398438 738.417969 171.34375 C 737.753906 172.285156 737.175781 173.042969 736.679688 173.613281 C 736.539062 173.804688 736.398438 173.996094 736.257812 174.1875 C 736.117188 174.378906 735.972656 174.570312 735.820312 174.761719 C 734.546875 176.160156 732.960938 177.222656 731.0625 177.949219 C 729.179688 178.675781 727.296875 179.039062 725.410156 179.039062 Z M 782.460938 178.503906 L 782.460938 139.394531 L 786.03125 139.394531 L 786.03125 175.296875 L 804.667969 175.296875 L 804.667969 178.503906 Z M 852.390625 158.949219 C 852.390625 163.023438 851.667969 166.566406 850.210938 169.585938 C 848.761719 172.589844 846.761719 174.917969 844.222656 176.574219 C 841.683594 178.214844 838.769531 179.039062 835.476562 179.039062 C 832.175781 179.039062 829.253906 178.214844 826.707031 176.574219 C 824.175781 174.917969 822.179688 172.589844 820.730469 169.585938 C 819.289062 166.566406 818.574219 163.023438 818.574219 158.949219 C 818.574219 154.875 819.289062 151.335938 820.730469 148.332031 C 822.179688 145.3125 824.183594 142.984375 826.722656 141.339844 C 829.269531 139.6875 832.1875 138.859375 835.476562 138.859375 C 838.769531 138.859375 841.683594 139.6875 844.222656 141.339844 C 846.761719 142.984375 848.761719 145.3125 850.210938 148.332031 C 851.667969 151.335938 852.390625 154.875 852.390625 158.949219 Z M 848.917969 158.949219 C 848.917969 155.449219 848.328125 152.449219 847.15625 149.953125 C 845.984375 147.445312 844.394531 145.53125 842.367188 144.207031 C 840.34375 142.882812 838.042969 142.21875 835.476562 142.21875 C 832.914062 142.21875 830.621094 142.882812 828.597656 144.207031 C 826.574219 145.53125 824.96875 147.441406 823.785156 149.933594 C 822.613281 152.429688 822.03125 155.433594 822.03125 158.949219 C 822.03125 162.449219 822.613281 165.449219 823.785156 167.941406 C 824.960938 170.4375 826.550781 172.355469 828.582031 173.691406 C 830.605469 175.015625 832.898438 175.675781 835.476562 175.675781 C 838.042969 175.675781 840.34375 175.015625 842.367188 173.691406 C 844.402344 172.367188 846.007812 170.457031 847.179688 167.960938 C 848.351562 165.453125 848.925781 162.449219 848.917969 158.949219 Z M 897.226562 151.617188 C 896.867188 150.316406 896.351562 149.101562 895.664062 147.96875 C 894.972656 146.820312 894.121094 145.824219 893.105469 144.96875 C 892.097656 144.105469 890.929688 143.429688 889.609375 142.945312 C 888.292969 142.460938 886.832031 142.21875 885.21875 142.21875 C 882.671875 142.21875 880.390625 142.882812 878.382812 144.207031 C 876.367188 145.53125 874.777344 147.441406 873.601562 149.933594 C 872.445312 152.429688 871.871094 155.433594 871.871094 158.949219 C 871.871094 162.449219 872.453125 165.449219 873.625 167.941406 C 874.796875 170.4375 876.402344 172.355469 878.4375 173.691406 C 880.488281 175.015625 882.828125 175.675781 885.464844 175.675781 C 887.867188 175.675781 889.996094 175.140625 891.84375 174.074219 C 893.6875 173.003906 895.128906 171.476562 896.160156 169.488281 C 897.203125 167.503906 897.710938 165.140625 897.691406 162.40625 L 898.832031 162.769531 L 886.308594 162.769531 L 886.308594 159.558594 L 901.164062 159.558594 L 901.164062 162.769531 C 901.164062 166.101562 900.492188 168.988281 899.140625 171.417969 C 897.785156 173.851562 895.933594 175.726562 893.582031 177.050781 C 891.222656 178.375 888.519531 179.039062 885.464844 179.039062 C 882.050781 179.039062 879.070312 178.214844 876.507812 176.574219 C 873.945312 174.917969 871.960938 172.589844 870.535156 169.585938 C 869.121094 166.566406 868.414062 163.023438 868.414062 158.949219 C 868.414062 155.878906 868.816406 153.113281 869.636719 150.640625 C 870.453125 148.171875 871.601562 146.058594 873.089844 144.300781 C 874.597656 142.542969 876.367188 141.203125 878.421875 140.273438 C 880.46875 139.332031 882.738281 138.859375 885.21875 138.859375 C 887.351562 138.859375 889.308594 139.195312 891.082031 139.871094 C 892.863281 140.546875 894.425781 141.476562 895.777344 142.660156 C 897.136719 143.832031 898.25 145.1875 899.117188 146.726562 C 899.996094 148.253906 900.585938 149.882812 900.894531 151.617188 Z M 922.738281 139.394531 L 922.738281 178.503906 L 919.171875 178.503906 L 919.171875 139.394531 Z M 963.511719 149.171875 C 963.296875 146.992188 962.339844 145.261719 960.628906 143.976562 C 958.925781 142.691406 956.78125 142.046875 954.199219 142.046875 C 952.375 142.046875 950.769531 142.359375 949.382812 142.984375 C 948.007812 143.609375 946.925781 144.472656 946.140625 145.582031 C 945.363281 146.675781 944.976562 147.921875 944.976562 149.324219 C 944.976562 150.355469 945.199219 151.257812 945.640625 152.035156 C 946.085938 152.8125 946.683594 153.480469 947.4375 154.039062 C 948.199219 154.589844 949.039062 155.058594 949.957031 155.453125 C 950.882812 155.847656 951.824219 156.179688 952.765625 156.445312 L 956.886719 157.632812 C 958.132812 157.972656 959.382812 158.414062 960.628906 158.949219 C 961.875 159.484375 963.019531 160.15625 964.050781 160.972656 C 965.09375 161.773438 965.925781 162.761719 966.550781 163.933594 C 967.1875 165.089844 967.507812 166.484375 967.507812 168.113281 C 967.507812 170.203125 966.960938 172.082031 965.878906 173.75 C 964.804688 175.414062 963.25 176.738281 961.226562 177.71875 C 959.203125 178.6875 956.773438 179.171875 953.945312 179.171875 C 951.285156 179.171875 948.976562 178.730469 947.011719 177.855469 C 945.058594 176.960938 943.519531 175.734375 942.398438 174.167969 C 941.277344 172.601562 940.644531 170.789062 940.5 168.726562 L 944.167969 168.726562 C 944.296875 170.265625 944.808594 171.570312 945.699219 172.640625 C 946.589844 173.710938 947.746094 174.523438 949.171875 175.085938 C 950.597656 175.632812 952.191406 175.90625 953.945312 175.90625 C 955.894531 175.90625 957.625 175.582031 959.144531 174.933594 C 960.667969 174.269531 961.867188 173.351562 962.734375 172.183594 C 963.609375 171 964.050781 169.625 964.050781 168.058594 C 964.050781 166.734375 963.707031 165.625 963.019531 164.734375 C 962.332031 163.832031 961.367188 163.074219 960.136719 162.460938 C 958.910156 161.851562 957.492188 161.308594 955.878906 160.839844 L 951.195312 159.464844 C 948.125 158.546875 945.75 157.28125 944.054688 155.664062 C 942.359375 154.046875 941.515625 151.984375 941.515625 149.476562 C 941.515625 147.375 942.078125 145.53125 943.195312 143.9375 C 944.332031 142.335938 945.855469 141.085938 947.78125 140.195312 C 949.71875 139.292969 951.882812 138.839844 954.289062 138.839844 C 956.722656 138.839844 958.875 139.285156 960.75 140.175781 C 962.617188 141.066406 964.101562 142.296875 965.191406 143.863281 C 966.304688 145.414062 966.894531 147.183594 966.96875 149.171875 Z M 982.871094 142.601562 L 982.871094 139.394531 L 1011.230469 139.394531 L 1011.230469 142.601562 L 998.839844 142.601562 L 998.839844 178.503906 L 995.269531 178.503906 L 995.269531 142.601562 Z M 1031.984375 139.394531 L 1031.984375 178.503906 L 1028.414062 178.503906 L 1028.414062 139.394531 Z M 1082.152344 151.617188 L 1078.5625 151.617188 C 1078.300781 150.277344 1077.8125 149.042969 1077.113281 147.910156 C 1076.425781 146.765625 1075.558594 145.765625 1074.511719 144.914062 C 1073.472656 144.058594 1072.285156 143.398438 1070.964844 142.925781 C 1069.636719 142.457031 1068.207031 142.21875 1066.664062 142.21875 C 1064.199219 142.21875 1061.941406 142.863281 1059.902344 144.148438 C 1057.878906 145.433594 1056.257812 147.324219 1055.035156 149.820312 C 1053.824219 152.304688 1053.21875 155.34375 1053.21875 158.949219 C 1053.21875 162.578125 1053.824219 165.632812 1055.035156 168.113281 C 1056.257812 170.597656 1057.878906 172.480469 1059.902344 173.765625 C 1061.941406 175.039062 1064.199219 175.675781 1066.664062 175.675781 C 1068.207031 175.675781 1069.636719 175.441406 1070.964844 174.96875 C 1072.285156 174.5 1073.472656 173.84375 1074.511719 173.003906 C 1075.558594 172.148438 1076.425781 171.152344 1077.113281 170.003906 C 1077.8125 168.859375 1078.300781 167.617188 1078.5625 166.28125 L 1082.152344 166.28125 C 1081.832031 168.078125 1081.234375 169.75 1080.359375 171.304688 C 1079.496094 172.84375 1078.382812 174.195312 1077.035156 175.351562 C 1075.699219 176.511719 1074.160156 177.414062 1072.414062 178.0625 C 1070.671875 178.714844 1068.753906 179.039062 1066.664062 179.039062 C 1063.382812 179.039062 1060.464844 178.214844 1057.917969 176.574219 C 1055.378906 174.917969 1053.375 172.589844 1051.925781 169.585938 C 1050.484375 166.582031 1049.769531 163.035156 1049.769531 158.949219 C 1049.769531 154.863281 1050.484375 151.316406 1051.925781 148.3125 C 1053.375 145.308594 1055.378906 142.984375 1057.917969 141.339844 C 1060.464844 139.6875 1063.382812 138.859375 1066.664062 138.859375 C 1068.753906 138.859375 1070.671875 139.183594 1072.414062 139.832031 C 1074.160156 140.46875 1075.699219 141.375 1077.035156 142.542969 C 1078.382812 143.703125 1079.496094 145.054688 1080.359375 146.59375 C 1081.234375 148.132812 1081.832031 149.808594 1082.152344 151.617188 Z M 1082.152344 151.617188 "/></g><g clip-rule="nonzero" clip-path="url(#2d34631745)"><path style=" stroke:none;fill-rule:nonzero;fill:#ffffff;fill-opacity:1;" d="M 287.292969 -10.3125 L 1094.1875 -10.3125 L 1094.1875 116.027344 L 287.292969 116.027344 Z M 287.292969 -10.3125 "/></g><g style="fill:#282828;fill-opacity:1;"><g transform="translate(322.747223, 99.989022)"><path style="stroke:none" d="M 85.046875 0 L 80.578125 -56.046875 L 80 -56.046875 L 60.625 -0.578125 L 47.796875 -0.578125 L 28.421875 -56.046875 L 27.84375 -56.046875 L 23.375 0 L 1.828125 0 L 10.3125 -94.546875 L 33.234375 -94.546875 L 54.203125 -40 L 75.1875 -94.546875 L 98.109375 -94.546875 L 106.59375 0 Z M 85.046875 0 "/></g></g><g style="fill:#282828;fill-opacity:1;"><g transform="translate(428.881362, 99.989022)"><path style="stroke:none" d="M 41.71875 -96.265625 C 46.832031 -96.265625 51.832031 -95.519531 56.71875 -94.03125 C 61.613281 -92.539062 65.25 -91.070312 67.625 -89.625 L 71.0625 -87.328125 L 62.34375 -70.140625 C 61.65625 -70.597656 60.703125 -71.1875 59.484375 -71.90625 C 58.265625 -72.632812 55.972656 -73.609375 52.609375 -74.828125 C 49.242188 -76.054688 46.109375 -76.671875 43.203125 -76.671875 C 39.617188 -76.671875 36.847656 -75.90625 34.890625 -74.375 C 32.941406 -72.851562 31.96875 -70.789062 31.96875 -68.1875 C 31.96875 -66.894531 32.425781 -65.691406 33.34375 -64.578125 C 34.269531 -63.472656 35.835938 -62.289062 38.046875 -61.03125 C 40.265625 -59.769531 42.210938 -58.753906 43.890625 -57.984375 C 45.578125 -57.222656 48.175781 -56.078125 51.6875 -54.546875 C 57.800781 -51.953125 63.015625 -48.421875 67.328125 -43.953125 C 71.648438 -39.484375 73.8125 -34.421875 73.8125 -28.765625 C 73.8125 -23.335938 72.835938 -18.597656 70.890625 -14.546875 C 68.941406 -10.503906 66.265625 -7.335938 62.859375 -5.046875 C 59.460938 -2.753906 55.703125 -1.054688 51.578125 0.046875 C 47.453125 1.160156 42.984375 1.71875 38.171875 1.71875 C 34.035156 1.71875 29.984375 1.296875 26.015625 0.453125 C 22.046875 -0.378906 18.722656 -1.425781 16.046875 -2.6875 C 13.367188 -3.945312 10.957031 -5.1875 8.8125 -6.40625 C 6.675781 -7.632812 5.113281 -8.671875 4.125 -9.515625 L 2.640625 -10.765625 L 13.40625 -28.875 C 14.320312 -28.113281 15.582031 -27.140625 17.1875 -25.953125 C 18.789062 -24.773438 21.632812 -23.191406 25.71875 -21.203125 C 29.8125 -19.210938 33.425781 -18.21875 36.5625 -18.21875 C 45.65625 -18.21875 50.203125 -21.3125 50.203125 -27.5 C 50.203125 -28.800781 49.875 -30.003906 49.21875 -31.109375 C 48.570312 -32.222656 47.425781 -33.332031 45.78125 -34.4375 C 44.144531 -35.550781 42.695312 -36.429688 41.4375 -37.078125 C 40.175781 -37.722656 38.109375 -38.710938 35.234375 -40.046875 C 32.367188 -41.390625 30.25 -42.40625 28.875 -43.09375 C 23.144531 -45.914062 18.710938 -49.445312 15.578125 -53.6875 C 12.453125 -57.9375 10.890625 -62.503906 10.890625 -67.390625 C 10.890625 -75.867188 14.019531 -82.800781 20.28125 -88.1875 C 26.550781 -93.570312 33.695312 -96.265625 41.71875 -96.265625 Z M 41.71875 -96.265625 "/></g></g><g style="fill:#282828;fill-opacity:1;"><g transform="translate(505.903121, 99.989022)"><path style="stroke:none" d="M 6.875 -94.546875 L 34.265625 -94.546875 C 47.410156 -94.546875 58.644531 -90.054688 67.96875 -81.078125 C 77.289062 -72.109375 81.953125 -60.859375 81.953125 -47.328125 C 81.953125 -33.734375 77.304688 -22.445312 68.015625 -13.46875 C 58.734375 -4.488281 47.484375 0 34.265625 0 L 6.875 0 Z M 28.421875 -19.25 L 31.75 -19.25 C 39.613281 -19.25 46.046875 -21.90625 51.046875 -27.21875 C 56.054688 -32.53125 58.601562 -39.195312 58.6875 -47.21875 C 58.6875 -55.238281 56.179688 -61.921875 51.171875 -67.265625 C 46.171875 -72.617188 39.695312 -75.296875 31.75 -75.296875 L 28.421875 -75.296875 Z M 28.421875 -19.25 "/></g></g><g style="fill:#282828;fill-opacity:1;"><g transform="translate(590.489509, 99.989022)"><path style="stroke:none" d="M 95.359375 0 L 67.5 0 L 45.15625 -32.203125 L 22.8125 0 L -3.890625 0 L 31.859375 -50.890625 L 2.0625 -94.546875 L 27.734375 -94.546875 L 45.15625 -68.765625 L 62.578125 -94.546875 L 89.390625 -94.546875 L 58.453125 -50.890625 Z M 95.359375 0 "/></g></g><g style="fill:#282828;fill-opacity:1;"><g transform="translate(681.952875, 99.989022)"><path style="stroke:none" d="M 6.875 -94.546875 L 41.375 -94.546875 C 51 -94.546875 58.789062 -92.0625 64.75 -87.09375 C 70.707031 -82.132812 73.6875 -74.914062 73.6875 -65.4375 C 73.6875 -55.96875 70.664062 -48.539062 64.625 -43.15625 C 58.59375 -37.769531 50.84375 -35.078125 41.375 -35.078125 L 28.421875 -35.078125 L 28.421875 0 L 6.875 0 Z M 28.421875 -52.265625 L 34.5 -52.265625 C 39.3125 -52.265625 43.265625 -53.238281 46.359375 -55.1875 C 49.453125 -57.132812 51 -60.320312 51 -64.75 C 51 -69.257812 49.453125 -72.488281 46.359375 -74.4375 C 43.265625 -76.382812 39.3125 -77.359375 34.5 -77.359375 L 28.421875 -77.359375 Z M 28.421875 -52.265625 "/></g></g><g style="fill:#282828;fill-opacity:1;"><g transform="translate(758.286907, 99.989022)"><path style="stroke:none" d="M 6.875 -94.546875 L 40.6875 -94.546875 C 49.78125 -94.546875 57.191406 -92.117188 62.921875 -87.265625 C 68.648438 -82.421875 71.515625 -75.488281 71.515625 -66.46875 C 71.515625 -59.519531 69.773438 -53.695312 66.296875 -49 C 62.828125 -44.300781 58.109375 -40.992188 52.140625 -39.078125 L 84.703125 0 L 57.3125 0 L 28.421875 -37.359375 L 28.421875 0 L 6.875 0 Z M 28.421875 -52.609375 L 30.9375 -52.609375 C 32.925781 -52.609375 34.609375 -52.644531 35.984375 -52.71875 C 37.359375 -52.789062 38.925781 -53.054688 40.6875 -53.515625 C 42.445312 -53.972656 43.859375 -54.625 44.921875 -55.46875 C 45.992188 -56.3125 46.910156 -57.535156 47.671875 -59.140625 C 48.441406 -60.742188 48.828125 -62.691406 48.828125 -64.984375 C 48.828125 -67.273438 48.441406 -69.222656 47.671875 -70.828125 C 46.910156 -72.429688 45.992188 -73.648438 44.921875 -74.484375 C 43.859375 -75.328125 42.445312 -75.976562 40.6875 -76.4375 C 38.925781 -76.894531 37.359375 -77.160156 35.984375 -77.234375 C 34.609375 -77.316406 32.925781 -77.359375 30.9375 -77.359375 L 28.421875 -77.359375 Z M 28.421875 -52.609375 "/></g></g><g style="fill:#282828;fill-opacity:1;"><g transform="translate(840.351784, 99.989022)"><path style="stroke:none" d="M 60.96875 -94.546875 L 60.96875 -75.640625 L 28.421875 -75.640625 L 28.421875 -56.84375 L 59.59375 -56.84375 L 59.59375 -37.9375 L 28.421875 -37.9375 L 28.421875 -18.90625 L 60.96875 -18.90625 L 60.96875 0 L 6.875 0 L 6.875 -94.546875 Z M 60.96875 -94.546875 "/></g></g><g style="fill:#282828;fill-opacity:1;"><g transform="translate(906.82888, 99.989022)"><path style="stroke:none" d="M 41.71875 -96.265625 C 46.832031 -96.265625 51.832031 -95.519531 56.71875 -94.03125 C 61.613281 -92.539062 65.25 -91.070312 67.625 -89.625 L 71.0625 -87.328125 L 62.34375 -70.140625 C 61.65625 -70.597656 60.703125 -71.1875 59.484375 -71.90625 C 58.265625 -72.632812 55.972656 -73.609375 52.609375 -74.828125 C 49.242188 -76.054688 46.109375 -76.671875 43.203125 -76.671875 C 39.617188 -76.671875 36.847656 -75.90625 34.890625 -74.375 C 32.941406 -72.851562 31.96875 -70.789062 31.96875 -68.1875 C 31.96875 -66.894531 32.425781 -65.691406 33.34375 -64.578125 C 34.269531 -63.472656 35.835938 -62.289062 38.046875 -61.03125 C 40.265625 -59.769531 42.210938 -58.753906 43.890625 -57.984375 C 45.578125 -57.222656 48.175781 -56.078125 51.6875 -54.546875 C 57.800781 -51.953125 63.015625 -48.421875 67.328125 -43.953125 C 71.648438 -39.484375 73.8125 -34.421875 73.8125 -28.765625 C 73.8125 -23.335938 72.835938 -18.597656 70.890625 -14.546875 C 68.941406 -10.503906 66.265625 -7.335938 62.859375 -5.046875 C 59.460938 -2.753906 55.703125 -1.054688 51.578125 0.046875 C 47.453125 1.160156 42.984375 1.71875 38.171875 1.71875 C 34.035156 1.71875 29.984375 1.296875 26.015625 0.453125 C 22.046875 -0.378906 18.722656 -1.425781 16.046875 -2.6875 C 13.367188 -3.945312 10.957031 -5.1875 8.8125 -6.40625 C 6.675781 -7.632812 5.113281 -8.671875 4.125 -9.515625 L 2.640625 -10.765625 L 13.40625 -28.875 C 14.320312 -28.113281 15.582031 -27.140625 17.1875 -25.953125 C 18.789062 -24.773438 21.632812 -23.191406 25.71875 -21.203125 C 29.8125 -19.210938 33.425781 -18.21875 36.5625 -18.21875 C 45.65625 -18.21875 50.203125 -21.3125 50.203125 -27.5 C 50.203125 -28.800781 49.875 -30.003906 49.21875 -31.109375 C 48.570312 -32.222656 47.425781 -33.332031 45.78125 -34.4375 C 44.144531 -35.550781 42.695312 -36.429688 41.4375 -37.078125 C 40.175781 -37.722656 38.109375 -38.710938 35.234375 -40.046875 C 32.367188 -41.390625 30.25 -42.40625 28.875 -43.09375 C 23.144531 -45.914062 18.710938 -49.445312 15.578125 -53.6875 C 12.453125 -57.9375 10.890625 -62.503906 10.890625 -67.390625 C 10.890625 -75.867188 14.019531 -82.800781 20.28125 -88.1875 C 26.550781 -93.570312 33.695312 -96.265625 41.71875 -96.265625 Z M 41.71875 -96.265625 "/></g></g><g style="fill:#282828;fill-opacity:1;"><g transform="translate(981.558313, 99.989022)"><path style="stroke:none" d="M 41.71875 -96.265625 C 46.832031 -96.265625 51.832031 -95.519531 56.71875 -94.03125 C 61.613281 -92.539062 65.25 -91.070312 67.625 -89.625 L 71.0625 -87.328125 L 62.34375 -70.140625 C 61.65625 -70.597656 60.703125 -71.1875 59.484375 -71.90625 C 58.265625 -72.632812 55.972656 -73.609375 52.609375 -74.828125 C 49.242188 -76.054688 46.109375 -76.671875 43.203125 -76.671875 C 39.617188 -76.671875 36.847656 -75.90625 34.890625 -74.375 C 32.941406 -72.851562 31.96875 -70.789062 31.96875 -68.1875 C 31.96875 -66.894531 32.425781 -65.691406 33.34375 -64.578125 C 34.269531 -63.472656 35.835938 -62.289062 38.046875 -61.03125 C 40.265625 -59.769531 42.210938 -58.753906 43.890625 -57.984375 C 45.578125 -57.222656 48.175781 -56.078125 51.6875 -54.546875 C 57.800781 -51.953125 63.015625 -48.421875 67.328125 -43.953125 C 71.648438 -39.484375 73.8125 -34.421875 73.8125 -28.765625 C 73.8125 -23.335938 72.835938 -18.597656 70.890625 -14.546875 C 68.941406 -10.503906 66.265625 -7.335938 62.859375 -5.046875 C 59.460938 -2.753906 55.703125 -1.054688 51.578125 0.046875 C 47.453125 1.160156 42.984375 1.71875 38.171875 1.71875 C 34.035156 1.71875 29.984375 1.296875 26.015625 0.453125 C 22.046875 -0.378906 18.722656 -1.425781 16.046875 -2.6875 C 13.367188 -3.945312 10.957031 -5.1875 8.8125 -6.40625 C 6.675781 -7.632812 5.113281 -8.671875 4.125 -9.515625 L 2.640625 -10.765625 L 13.40625 -28.875 C 14.320312 -28.113281 15.582031 -27.140625 17.1875 -25.953125 C 18.789062 -24.773438 21.632812 -23.191406 25.71875 -21.203125 C 29.8125 -19.210938 33.425781 -18.21875 36.5625 -18.21875 C 45.65625 -18.21875 50.203125 -21.3125 50.203125 -27.5 C 50.203125 -28.800781 49.875 -30.003906 49.21875 -31.109375 C 48.570312 -32.222656 47.425781 -33.332031 45.78125 -34.4375 C 44.144531 -35.550781 42.695312 -36.429688 41.4375 -37.078125 C 40.175781 -37.722656 38.109375 -38.710938 35.234375 -40.046875 C 32.367188 -41.390625 30.25 -42.40625 28.875 -43.09375 C 23.144531 -45.914062 18.710938 -49.445312 15.578125 -53.6875 C 12.453125 -57.9375 10.890625 -62.503906 10.890625 -67.390625 C 10.890625 -75.867188 14.019531 -82.800781 20.28125 -88.1875 C 26.550781 -93.570312 33.695312 -96.265625 41.71875 -96.265625 Z M 41.71875 -96.265625 "/></g></g></g></svg>